<?xml version="1.0" encoding="utf-8"?>
<svg viewBox="0 0 50 50" xmlns="http://www.w3.org/2000/svg">
  <path d="M 25 1.023 L 13.641 11.531 C 13.105 12.012 12.867 12.746 13.023 13.453 C 13.18 14.156 13.703 14.723 14.395 14.934 C 15.086 15.145 15.836 14.969 16.359 14.469 L 23 8.324 L 23 47 C 22.988 47.723 23.367 48.391 23.992 48.754 C 24.613 49.121 25.387 49.121 26.008 48.754 C 26.633 48.391 27.012 47.723 27 47 L 27 8.324 L 33.641 14.469 C 34.164 14.969 34.914 15.145 35.605 14.934 C 36.297 14.723 36.82 14.156 36.977 13.453 C 37.133 12.746 36.895 12.012 36.359 11.531 Z" transform="matrix(-1, 0, 0, -1, 49.999998, 50.052252)"/>
</svg>