<svg width="39" height="39" viewBox="0 0 39 39" fill="none" xmlns="http://www.w3.org/2000/svg">
	<path d="M7.80069 4.21878L19.5007 15.9188L31.2007 4.25424C31.6666 3.78021 32.3094 3.52316 32.9734 3.54514C34.3069 3.6313 35.3691 4.69352 35.4552 6.02696C35.4616 6.66727 35.2053 7.28241 34.7461 7.72878L23.0107 19.4997L34.7461 31.2706C35.2053 31.717 35.4616 32.3321 35.4552 32.9724C35.3691 34.3059 34.3069 35.3681 32.9734 35.4542C32.3094 35.4762 31.6666 35.2192 31.2007 34.7451L19.5007 23.0806L7.83615 34.7451C7.37028 35.2192 6.72748 35.4762 6.06342 35.4542C4.70374 35.3833 3.61706 34.2966 3.54615 32.937C3.53977 32.2967 3.7961 31.6815 4.25524 31.2351L15.9907 19.4997L4.21978 7.72878C3.77341 7.27638 3.53019 6.66231 3.54615 6.02696C3.6323 4.69352 4.69452 3.6313 6.02797 3.54514C6.68671 3.51394 7.32879 3.75787 7.80069 4.21878Z" fill="#757575" />
</svg>
	