<svg width="41" height="41" viewBox="0 0 41 41" fill="none" xmlns="http://www.w3.org/2000/svg">
	<path d="M38.013 16.7294C37.1228 15.9661 36.1738 15.5549 35.1811 15.5008C35.5887 13.3152 35.33 10.7775 32.5539 9.56469C31.9768 9.30412 31.3544 9.15862 30.7216 9.13635C30.428 7.48827 29.541 5.66369 27.1301 5.164C26.2172 4.97501 25.3675 5.03515 24.5939 5.34217C23.9401 3.95234 22.729 2.5625 20.5005 2.5625C18.2721 2.5625 17.061 3.95234 16.4072 5.34217C15.6336 5.03507 14.7835 4.97501 13.871 5.164C11.46 5.66369 10.5731 7.48827 10.2795 9.13635C9.64672 9.15865 9.02432 9.30414 8.44719 9.56469C5.67112 10.7775 5.41223 13.3152 5.81999 15.5008C4.82742 15.555 3.87825 15.9662 2.98811 16.7294C1.80231 17.7461 1.21774 18.9603 1.25137 20.3382C1.28885 21.8677 2.11518 23.5852 3.70745 25.4425C5.04972 27.0082 7.29327 29.2222 9.62314 31.3057L10.5697 35.724C10.6313 36.012 10.749 36.2851 10.9161 36.5276C11.0833 36.7702 11.2966 36.9774 11.5438 37.1374C11.7911 37.2974 12.0675 37.4072 12.3572 37.4603C12.6469 37.5134 12.9443 37.5089 13.2323 37.4471L16.5107 36.7446C18.2544 37.8694 19.59 38.4375 20.5005 38.4375C21.4111 38.4375 22.7467 37.8694 24.4904 36.7446L27.769 37.4472C28.0569 37.509 28.3543 37.5134 28.6439 37.4602C28.9336 37.4071 29.2099 37.2973 29.4572 37.1373C29.7044 36.9773 29.9177 36.7701 30.0848 36.5277C30.252 36.2852 30.3697 36.0121 30.4313 35.7241L31.378 31.3057C33.7082 29.222 35.9514 27.0082 37.2936 25.4425C38.8859 23.5852 39.712 21.8679 39.7497 20.3382C39.7834 18.9603 39.1988 17.7461 38.013 16.7294ZM12.9641 36.1942C12.7148 36.2475 12.4546 36.1997 12.2405 36.0613C12.0265 35.9228 11.8762 35.705 11.8226 35.4558L11.235 32.7134C11.4708 32.9143 11.7054 33.1118 11.9387 33.3059C13.0713 34.2483 14.1104 35.0615 15.056 35.7457L12.9641 36.1942ZM29.1784 35.456C29.1248 35.7051 28.9745 35.9228 28.7606 36.0613C28.5466 36.1997 28.2864 36.2475 28.0372 36.1943L25.9451 35.7458C26.8904 35.0616 27.9295 34.2484 29.0624 33.3061C29.2953 33.1123 29.5298 32.9148 29.7661 32.7135L29.1784 35.456ZM36.3213 24.6086C34.8932 26.2742 31.7562 29.3985 28.2433 32.3213C24.6042 35.3488 21.7097 37.1562 20.5005 37.1562C19.2914 37.1562 16.3969 35.3488 12.7582 32.3213C9.24533 29.3984 6.10827 26.2744 4.68016 24.6086C3.28496 22.9811 2.56225 21.5336 2.5323 20.3069C2.50828 19.3188 2.92997 18.4667 3.82204 17.7021C4.54571 17.0816 5.27826 16.7761 6.04869 16.7761C6.21019 16.7764 6.37141 16.7894 6.53084 16.8151C6.63632 16.832 6.74434 16.8222 6.84507 16.7866C6.9458 16.7511 7.03604 16.6909 7.10758 16.6116C7.17912 16.5323 7.2297 16.4363 7.2547 16.3325C7.2797 16.2286 7.27834 16.1202 7.25074 16.017C6.52035 13.2869 7.07946 11.5604 8.96009 10.7388C9.5835 10.4665 10.1853 10.366 10.7498 10.4401C10.8347 10.4513 10.9211 10.4452 11.0037 10.4224C11.0863 10.3996 11.1635 10.3604 11.2307 10.3072C11.2979 10.254 11.3538 10.1879 11.395 10.1127C11.4361 10.0375 11.4618 9.95483 11.4705 9.86955C11.6727 7.87648 12.5429 6.74778 14.1311 6.41866C14.9926 6.24001 15.7339 6.3546 16.3969 6.76764C16.478 6.81823 16.5694 6.85002 16.6644 6.86068C16.7594 6.87133 16.8556 6.86059 16.946 6.82922C17.0363 6.79786 17.1184 6.74668 17.1864 6.67944C17.2544 6.61219 17.3064 6.53059 17.3387 6.4406C17.9664 4.69314 19.0007 3.84375 20.5005 3.84375C22.0004 3.84375 23.0347 4.69314 23.6624 6.4406C23.6947 6.53059 23.7467 6.61219 23.8147 6.67944C23.8827 6.74668 23.9648 6.79786 24.0551 6.82922C24.1455 6.86059 24.2416 6.87133 24.3367 6.86068C24.4317 6.85002 24.5231 6.81823 24.6042 6.76764C25.2673 6.35436 26.0084 6.24009 26.8704 6.41866C28.4585 6.74778 29.3288 7.87608 29.531 9.86955C29.5396 9.95483 29.5653 10.0375 29.6065 10.1127C29.6476 10.1879 29.7035 10.254 29.7707 10.3072C29.8379 10.3604 29.9151 10.3996 29.9977 10.4224C30.0803 10.4452 30.1667 10.4513 30.2517 10.4401C30.8159 10.3663 31.4179 10.4665 32.0413 10.7388C33.922 11.5604 34.4811 13.2869 33.7507 16.017C33.7231 16.1202 33.7217 16.2286 33.7467 16.3325C33.7717 16.4363 33.8223 16.5323 33.8938 16.6116C33.9654 16.6909 34.0556 16.7511 34.1563 16.7866C34.2571 16.8222 34.3651 16.832 34.4706 16.8151C35.4201 16.663 36.3064 16.9536 37.1794 17.7021C38.0714 18.4667 38.4934 19.3188 38.4691 20.3069C38.4388 21.5338 37.7161 22.9811 36.3209 24.6086H36.3213Z" fill="#757575" />
	<path d="M16.8617 8.42318L15.5946 8.23291C15.4407 9.32546 15.3675 10.4279 15.3756 11.5312C15.3756 16.3237 16.4599 27.6801 17.958 33.5478L19.1993 33.231C17.7245 27.4537 16.6569 16.2588 16.6569 11.5312C16.6488 10.4915 16.7173 9.45275 16.8617 8.42318Z" fill="#757575" />
	<path d="M11.4448 11.4956L10.1655 11.5677C10.2302 12.5621 10.3675 13.5505 10.5763 14.5249C11.1502 17.2938 12.8276 23.1017 14.8058 28.4115L16.0065 27.9642C14.0503 22.7139 12.395 16.9874 11.831 14.2649C11.635 13.3525 11.5059 12.4269 11.4448 11.4956Z" fill="#757575" />
	<path d="M7.81846 17.7002L6.62842 18.1749C6.71338 18.3879 6.80515 18.6073 6.90116 18.8272C8.25224 21.9198 11.7692 28.1855 14.8512 32.5834L15.9003 31.8481C12.8621 27.5129 9.40128 21.3502 8.07495 18.3143C7.9847 18.1071 7.8983 17.9004 7.81846 17.7002Z" fill="#757575" />
	<path d="M25.4066 8.23291L24.1395 8.42318C24.2839 9.45275 24.3524 10.4915 24.3443 11.5312C24.3443 16.2588 23.2766 27.4537 21.8018 33.231L23.043 33.5478C24.5412 27.6801 25.6256 16.3237 25.6256 11.5312C25.6336 10.4279 25.5604 9.32546 25.4066 8.23291Z" fill="#757575" />
	<path d="M30.4243 14.5244C30.6332 13.55 30.7705 12.5616 30.8351 11.5672L29.5559 11.4951C29.4948 12.4265 29.3657 13.3521 29.1697 14.2646C28.6055 16.9873 26.9504 22.7136 24.9941 27.9638L26.1948 28.4111C28.1731 23.1012 29.8505 17.2933 30.4243 14.5244Z" fill="#757575" />
	<path d="M32.9269 18.3142C31.6005 21.3502 28.1397 27.5129 25.1016 31.8481L26.1506 32.5834C29.2326 28.1855 32.7496 21.9198 34.1007 18.8271C34.1968 18.6073 34.2884 18.3879 34.3734 18.1749L33.1834 17.7002C33.1038 17.9007 33.0174 18.1074 32.9269 18.3142Z" fill="#757575" />
</svg>
	