<svg width="54" height="54" viewBox="0 0 54 54" fill="none" xmlns="http://www.w3.org/2000/svg">
	<path d="M49.9532 16.3866L38.9845 11.4009C38.6521 11.2498 38.2698 11.2498 37.9374 11.4009L34.3261 13.0424C34.4654 13.4132 34.4692 13.8338 34.2515 14.2317C33.9498 14.783 33.5621 15.2724 33.1149 15.7032C33.0626 15.7917 33.0074 15.8791 32.9521 15.9656C32.8504 16.1702 32.7509 16.3756 32.6547 16.5823L38.4614 13.9431L48.1645 18.3534V44.9893L38.9849 40.817C38.6525 40.6659 38.2703 40.6659 37.9378 40.817L27.4926 45.5647L17.047 40.8174C16.8808 40.7419 16.7019 40.7039 16.5234 40.7039C16.345 40.7039 16.1661 40.7419 15.9999 40.8174L6.82031 44.9897V18.3538L16.5234 13.9435L21.8876 16.3815C21.5585 15.9478 21.2223 15.4897 20.8232 15.0227C20.2807 14.3873 20.3832 13.625 20.7726 13.0943L17.047 11.4009C16.7145 11.2498 16.3323 11.2498 15.9999 11.4009L5.03114 16.3866C4.57931 16.592 4.28906 17.0426 4.28906 17.5387V46.9548C4.28906 47.3851 4.50759 47.7859 4.86956 48.0192C5.23153 48.2521 5.68716 48.2854 6.07823 48.107L16.5234 43.3592L26.9686 48.107C27.3011 48.258 27.6833 48.258 28.0157 48.107L38.4609 43.3592L48.9061 48.107C49.0732 48.1829 49.2517 48.2204 49.4297 48.2204C49.6689 48.2204 49.9073 48.1525 50.1148 48.0192C50.4768 47.7863 50.6953 47.3851 50.6953 46.9548V17.5387C50.6953 17.0426 50.4051 16.592 49.9532 16.3866Z" fill="#757575" />
	<path d="M5.55568 38.9378C5.53247 38.9378 5.50927 38.9366 5.48564 38.9349C5.022 38.8965 4.67691 38.4915 4.71361 38.0278C4.71615 37.9975 4.77647 37.271 5.08064 36.2117C5.20932 35.7636 5.6776 35.5055 6.12436 35.6333C6.57239 35.762 6.831 36.2294 6.70275 36.677C6.44921 37.5608 6.39605 38.1582 6.39563 38.1641C6.35808 38.6046 5.98936 38.9378 5.55568 38.9378Z" fill="#757575" />
	<path d="M35.9298 38.5177C34.757 38.5177 33.7348 38.3697 32.8046 38.0663C32.3616 37.9216 32.1199 37.4453 32.2642 37.0024C32.4089 36.5594 32.8868 36.3181 33.3281 36.4619C34.0867 36.7096 34.9376 36.8298 35.9298 36.8302C36.01 36.8302 36.0893 36.8285 36.1673 36.8243C36.6322 36.799 37.0288 37.1597 37.0516 37.6255C37.0748 38.0908 36.7162 38.4869 36.2505 38.5097C36.1454 38.5152 36.0382 38.5177 35.9298 38.5177ZM39.1335 37.3896C38.8867 37.3896 38.6416 37.2821 38.475 37.0745C38.1831 36.7113 38.2409 36.1801 38.6041 35.8882C39.2339 35.3819 39.8187 34.6728 40.4435 33.6565C40.6873 33.2599 41.2066 33.1355 41.604 33.3797C42.001 33.624 42.1246 34.1437 41.8808 34.5403C41.1514 35.7262 40.4464 36.5725 39.6609 37.2036C39.5056 37.3285 39.3192 37.3896 39.1335 37.3896ZM30.3881 36.4451C30.1717 36.4451 29.9557 36.3624 29.7907 36.197C28.9963 35.4005 28.3757 34.4741 27.7568 33.516C27.5041 33.1245 27.6168 32.6022 28.0083 32.3495C28.3994 32.0964 28.9221 32.2094 29.1748 32.6009C29.7637 33.5139 30.3067 34.3247 30.9854 35.0056C31.3145 35.3355 31.3137 35.8696 30.9838 36.1987C30.8192 36.3632 30.6037 36.4451 30.3881 36.4451ZM7.15753 34.3648C7.00987 34.3648 6.86053 34.326 6.72468 34.2446C6.32474 34.0049 6.19523 33.4869 6.43443 33.0869C7.02843 32.0955 7.75026 31.1995 8.57925 30.4236C8.9197 30.1055 9.45337 30.1237 9.77189 30.4633C10.09 30.8037 10.0723 31.3374 9.73223 31.6559C9.01757 32.3246 8.39489 33.0979 7.88189 33.9543C7.7241 34.2184 7.4444 34.3648 7.15753 34.3648ZM42.6912 32.1339C42.56 32.1339 42.4271 32.1031 42.3027 32.0386C41.8892 31.8234 41.7281 31.3142 41.9428 30.9008C42.4448 29.9351 42.9874 28.9184 43.6122 28.0396C43.8826 27.6595 44.4091 27.5713 44.7888 27.8409C45.1685 28.1113 45.2575 28.6378 44.9875 29.0175C44.4251 29.8081 43.9151 30.7658 43.4405 31.6787C43.2899 31.9681 42.9958 32.1339 42.6912 32.1339ZM26.6199 31.2973C26.3841 31.2973 26.1495 31.199 25.9824 31.0071C25.299 30.2207 24.5928 29.6622 23.7596 29.2487C23.3419 29.0416 23.1715 28.5353 23.3786 28.1181C23.5858 27.7 24.0916 27.53 24.5092 27.7371C25.5348 28.2459 26.4334 28.9534 27.2561 29.9005C27.5619 30.2524 27.5244 30.7852 27.1725 31.0906C27.0131 31.2294 26.8161 31.2973 26.6199 31.2973ZM11.7623 30.0524C11.4573 30.0524 11.1628 29.8862 11.0126 29.5963C10.7983 29.1829 10.9599 28.6733 11.3737 28.459C12.3394 27.9586 13.4051 27.56 14.5412 27.2735C14.9934 27.1613 15.4516 27.4338 15.5655 27.8856C15.6794 28.3375 15.4052 28.796 14.9534 28.91C13.9434 29.1643 13.0005 29.5166 12.15 29.957C12.0255 30.022 11.8931 30.0524 11.7623 30.0524ZM21.0853 28.4801C21.0532 28.4801 21.0208 28.4784 20.9883 28.4746C20.5149 28.4206 20.0066 28.3927 19.4767 28.3927C18.9569 28.3885 18.4499 28.41 17.9584 28.4446C17.4897 28.4775 17.0902 28.1265 17.0577 27.662C17.0252 27.1971 17.3753 26.7938 17.8402 26.7613C18.371 26.7242 18.9186 26.6972 19.4771 26.7057C20.0707 26.7057 20.644 26.7369 21.1807 26.7985C21.6434 26.8516 21.9759 27.2701 21.9227 27.7329C21.8734 28.1628 21.5084 28.4801 21.0853 28.4801Z" fill="#757575" />
	<path d="M46.7309 27.2375C46.401 27.2375 46.088 27.043 45.9526 26.7198C45.7724 26.29 45.9745 25.7959 46.4044 25.6154C47.0165 25.3585 47.6797 25.2285 48.3754 25.2285C48.8412 25.2285 49.2192 25.6065 49.2192 26.0723C49.2192 26.538 48.8412 26.916 48.3754 26.916C47.8987 26.916 47.4671 26.9995 47.057 27.1717C46.9503 27.2164 46.8398 27.2375 46.7309 27.2375Z" fill="#757575" />
	<path d="M16.5234 42.8127C16.0577 42.8127 15.6797 42.4347 15.6797 41.9689V13.2051C15.6797 12.7393 16.0577 12.3613 16.5234 12.3613C16.9892 12.3613 17.3672 12.7393 17.3672 13.2051V41.9694C17.3672 42.4351 16.9892 42.8127 16.5234 42.8127Z" fill="#757575" />
	<path d="M27.4922 47.377C27.026 47.377 26.6484 46.999 26.6484 46.5332V23.3301C26.6484 22.8643 27.026 22.4863 27.4922 22.4863C27.9579 22.4863 28.3359 22.8643 28.3359 23.3301V46.5332C28.3359 46.999 27.9579 47.377 27.4922 47.377Z" fill="#757575" />
	<path d="M38.4609 42.8127C37.9948 42.8127 37.6172 42.4347 37.6172 41.9689V13.2051C37.6172 12.7393 37.9948 12.3613 38.4609 12.3613C38.9267 12.3613 39.3047 12.7393 39.3047 13.2051V41.9694C39.3047 42.4351 38.9267 42.8127 38.4609 42.8127Z" fill="#757575" />
	<path d="M27.7031 25.1344C27.3226 25.1344 26.9619 24.9631 26.7218 24.6678C25.8806 23.635 18.5054 14.4411 18.5054 9.74606C18.5054 4.67428 22.6313 0.54834 27.7031 0.54834C32.7744 0.54834 36.9008 4.67428 36.9008 9.74606C36.9008 14.4411 29.5256 23.6346 28.6844 24.6678C28.4443 24.9631 28.0836 25.1344 27.7031 25.1344ZM27.7031 3.08001C24.0273 3.08001 21.0366 6.07068 21.0366 9.74648C21.0366 12.3089 24.7938 18.0477 27.7027 21.8281C30.6119 18.0464 34.3691 12.3068 34.3691 9.74648C34.3691 6.07068 31.3789 3.08001 27.7031 3.08001Z" fill="#757575" />
	<path d="M27.7033 13.4922C25.6378 13.4922 23.9575 11.8119 23.9575 9.7468C23.9575 7.6813 25.6378 6.00098 27.7033 6.00098C29.7688 6.00098 31.4492 7.6813 31.4492 9.7468C31.4492 11.8119 29.7688 13.4922 27.7033 13.4922ZM27.7033 7.68848C26.5685 7.68848 25.645 8.61154 25.645 9.7468C25.645 10.8816 26.5681 11.8047 27.7033 11.8047C28.8382 11.8047 29.7617 10.8812 29.7617 9.7468C29.7617 8.61154 28.8382 7.68848 27.7033 7.68848Z" fill="#757575" />
</svg>
	