<svg width="59" height="59" viewBox="0 0 59 59" fill="none" xmlns="http://www.w3.org/2000/svg">
<path d="M53.8937 18.3424L42.1283 12.9945C41.7717 12.8325 41.3617 12.8325 41.0051 12.9945L37.1316 14.7553C37.281 15.153 37.285 15.6042 37.0515 16.0309C36.728 16.6224 36.3121 17.1473 35.8325 17.6093C35.7764 17.7043 35.7171 17.798 35.6578 17.8907C35.5487 18.1102 35.4419 18.3306 35.3388 18.5523L41.5672 15.7214L51.975 20.452V49.0224L42.1287 44.547C41.7722 44.385 41.3622 44.385 41.0056 44.547L29.8018 49.6396L18.5976 44.5474C18.4193 44.4664 18.2274 44.4257 18.036 44.4257C17.8446 44.4257 17.6527 44.4664 17.4744 44.5474L7.62817 49.0228V20.4524L18.036 15.7218L23.7897 18.3369C23.4367 17.8717 23.0761 17.3803 22.648 16.8794C22.0661 16.1979 22.176 15.3802 22.5937 14.8109L18.5976 12.9945C18.241 12.8325 17.831 12.8325 17.4744 12.9945L5.70906 18.3424C5.22442 18.5627 4.91309 19.046 4.91309 19.5782V51.1306C4.91309 51.5922 5.14749 52.0221 5.53575 52.2723C5.924 52.5221 6.41272 52.5578 6.8322 52.3664L18.036 47.2738L29.2398 52.3664C29.5964 52.5284 30.0063 52.5284 30.3629 52.3664L41.5667 47.2738L52.7705 52.3664C52.9497 52.4479 53.1411 52.4882 53.3321 52.4882C53.5887 52.4882 53.8443 52.4153 54.067 52.2723C54.4552 52.0225 54.6896 51.5922 54.6896 51.1306V19.5782C54.6896 19.046 54.3783 18.5627 53.8937 18.3424Z" fill="#0072E3"/>
<path d="M6.27181 42.5318C6.24692 42.5318 6.22203 42.5304 6.19669 42.5286C5.69938 42.4874 5.32922 42.053 5.36859 41.5557C5.37131 41.5231 5.43602 40.7439 5.76228 39.6076C5.9003 39.1271 6.40259 38.8501 6.8818 38.9872C7.36237 39.1252 7.63976 39.6266 7.5022 40.1067C7.23024 41.0548 7.17322 41.6955 7.17277 41.7019C7.13249 42.1743 6.737 42.5318 6.27181 42.5318Z" fill="#0072E3"/>
<path d="M38.8517 42.0808C37.5937 42.0808 36.4972 41.922 35.4994 41.5966C35.0243 41.4414 34.765 40.9305 34.9198 40.4554C35.075 39.9802 35.5877 39.7214 36.061 39.8757C36.8746 40.1413 37.7873 40.2703 38.8517 40.2707C38.9376 40.2707 39.0227 40.2689 39.1064 40.2644C39.6051 40.2372 40.0305 40.6241 40.0549 41.1237C40.0798 41.6228 39.6951 42.0477 39.1956 42.0722C39.0829 42.0781 38.968 42.0808 38.8517 42.0808ZM42.2881 40.8708C42.0233 40.8708 41.7604 40.7554 41.5817 40.5327C41.2685 40.1431 41.3305 39.5734 41.7201 39.2603C42.3957 38.7172 43.0229 37.9566 43.6931 36.8665C43.9547 36.4411 44.5117 36.3076 44.938 36.5696C45.3638 36.8316 45.4964 37.3891 45.2348 37.8145C44.4524 39.0865 43.6963 39.9942 42.8537 40.6712C42.6872 40.8051 42.4872 40.8708 42.2881 40.8708ZM32.9074 39.8576C32.6753 39.8576 32.4436 39.7689 32.2667 39.5915C31.4146 38.7372 30.7489 37.7434 30.0851 36.7158C29.814 36.2958 29.9349 35.7356 30.3548 35.4646C30.7743 35.1931 31.3349 35.3143 31.606 35.7343C32.2377 36.7135 32.8201 37.5832 33.5482 38.3136C33.9012 38.6675 33.9003 39.2404 33.5464 39.5933C33.3699 39.7698 33.1387 39.8576 32.9074 39.8576ZM7.98975 37.6262C7.83137 37.6262 7.67118 37.5846 7.52547 37.4973C7.09649 37.2402 6.95757 36.6846 7.21414 36.2556C7.85128 35.1922 8.62553 34.231 9.51472 33.3988C9.8799 33.0577 10.4523 33.0771 10.794 33.4414C11.1352 33.8066 11.1162 34.379 10.7514 34.7206C9.98489 35.4379 9.31697 36.2673 8.76672 37.1859C8.59748 37.4692 8.29746 37.6262 7.98975 37.6262ZM46.1041 35.2333C45.9634 35.2333 45.8208 35.2003 45.6873 35.1311C45.2439 34.9003 45.071 34.3541 45.3013 33.9106C45.8398 32.8748 46.4218 31.7843 47.0919 30.8417C47.382 30.434 47.9467 30.3394 48.354 30.6286C48.7613 30.9186 48.8567 31.4834 48.5671 31.8906C47.9639 32.7386 47.4168 33.7658 46.9078 34.7451C46.7462 35.0555 46.4308 35.2333 46.1041 35.2333ZM28.8656 34.336C28.6126 34.336 28.361 34.2306 28.1818 34.0247C27.4488 33.1812 26.6912 32.5821 25.7975 32.1386C25.3495 31.9164 25.1667 31.3734 25.3889 30.9259C25.6111 30.4774 26.1537 30.2951 26.6017 30.5172C27.7017 31.063 28.6656 31.8218 29.548 32.8377C29.876 33.2151 29.8358 33.7867 29.4584 34.1143C29.2873 34.2632 29.076 34.336 28.8656 34.336ZM12.9289 33.0006C12.6018 33.0006 12.2859 32.8223 12.1248 32.5115C11.8949 32.068 12.0683 31.5214 12.5122 31.2915C13.548 30.7548 14.691 30.3272 15.9097 30.0199C16.3947 29.8996 16.8862 30.1919 17.0084 30.6765C17.1305 31.1612 16.8364 31.6531 16.3518 31.7752C15.2684 32.0481 14.2571 32.4259 13.3448 32.8984C13.2113 32.9681 13.0692 33.0006 12.9289 33.0006ZM22.929 31.3141C22.8947 31.3141 22.8598 31.3123 22.825 31.3082C22.3172 31.2503 21.772 31.2205 21.2036 31.2205C20.6461 31.2159 20.1022 31.239 19.575 31.2761C19.0723 31.3114 18.6437 30.9349 18.6089 30.4367C18.5741 29.938 18.9496 29.5054 19.4483 29.4706C20.0176 29.4308 20.6049 29.4018 21.2041 29.4108C21.8408 29.4108 22.4557 29.4443 23.0313 29.5104C23.5277 29.5674 23.8843 30.0163 23.8273 30.5127C23.7743 30.9738 23.3829 31.3141 22.929 31.3141Z" fill="#0072E3"/>
<path d="M50.4373 29.9815C50.0834 29.9815 49.7476 29.7729 49.6024 29.4263C49.4092 28.9652 49.6259 28.4353 50.087 28.2416C50.7436 27.966 51.455 27.8267 52.2012 27.8267C52.7007 27.8267 53.1062 28.2321 53.1062 28.7317C53.1062 29.2313 52.7007 29.6367 52.2012 29.6367C51.6898 29.6367 51.2269 29.7263 50.7871 29.9109C50.6726 29.9589 50.554 29.9815 50.4373 29.9815Z" fill="#0072E3"/>
<path d="M18.0359 46.6878C17.5363 46.6878 17.1309 46.2824 17.1309 45.7828V14.9299C17.1309 14.4304 17.5363 14.0249 18.0359 14.0249C18.5355 14.0249 18.9409 14.4304 18.9409 14.9299V45.7832C18.9409 46.2828 18.5355 46.6878 18.0359 46.6878Z" fill="#0072E3"/>
<path d="M29.8015 51.5836C29.3015 51.5836 28.8965 51.1781 28.8965 50.6786V25.7903C28.8965 25.2907 29.3015 24.8853 29.8015 24.8853C30.3011 24.8853 30.7065 25.2907 30.7065 25.7903V50.6786C30.7065 51.1781 30.3011 51.5836 29.8015 51.5836Z" fill="#0072E3"/>
<path d="M41.5666 46.6878C41.0666 46.6878 40.6616 46.2824 40.6616 45.7828V14.9299C40.6616 14.4304 41.0666 14.0249 41.5666 14.0249C42.0662 14.0249 42.4717 14.4304 42.4717 14.9299V45.7832C42.4717 46.2828 42.0662 46.6878 41.5666 46.6878Z" fill="#0072E3"/>
<path d="M30.0273 27.7256C29.6192 27.7256 29.2323 27.5419 28.9748 27.2251C28.0725 26.1174 20.1616 16.2557 20.1616 11.2197C20.1616 5.77959 24.5872 1.354 30.0273 1.354C35.467 1.354 39.893 5.77959 39.893 11.2197C39.893 16.2557 31.9822 26.1169 31.0799 27.2251C30.8224 27.5419 30.4355 27.7256 30.0273 27.7256ZM30.0273 4.06954C26.0846 4.06954 22.8767 7.27741 22.8767 11.2202C22.8767 13.9687 26.9068 20.1243 30.0269 24.1793C33.1474 20.1229 37.1775 13.9665 37.1775 11.2202C37.1775 7.27741 33.9701 4.06954 30.0273 4.06954Z" fill="#0072E3"/>
<path d="M30.0276 15.2379C27.8121 15.2379 26.0098 13.4356 26.0098 11.2205C26.0098 9.005 27.8121 7.20264 30.0276 7.20264C32.2431 7.20264 34.0455 9.005 34.0455 11.2205C34.0455 13.4356 32.2431 15.2379 30.0276 15.2379ZM30.0276 9.01269C28.8104 9.01269 27.8198 10.0028 27.8198 11.2205C27.8198 12.4378 28.8099 13.4279 30.0276 13.4279C31.2449 13.4279 32.2355 12.4373 32.2355 11.2205C32.2355 10.0028 31.2449 9.01269 30.0276 9.01269Z" fill="#0072E3"/>
</svg>
