<svg width="49" height="49" viewBox="0 0 49 49" fill="none" xmlns="http://www.w3.org/2000/svg">
	<path d="M40.8145 11.713C35.7587 11.081 30.9977 9.52207 26.5738 6.90986C25.7733 6.44641 25.1413 6.5728 24.3829 6.95199C20.1275 9.05862 15.7458 10.7018 11.0269 11.418C9.72082 11.6287 9.25736 12.3028 9.34162 13.5668C9.51015 15.7998 9.55229 18.0328 9.72082 20.2237C10.4371 30.4619 15.7458 37.5823 24.7621 42.0483C25.3519 42.3432 25.8997 42.5539 26.6159 42.1747C30.9556 39.7731 35.0424 37.1188 37.8653 32.8634C41.1516 27.8918 41.91 22.2882 42.247 16.5582C42.247 15.4627 42.247 14.3252 42.247 13.2297C42.2049 12.3449 41.8257 11.8394 40.8145 11.713ZM24.425 39.2254C18.695 36.1498 14.6924 31.9787 12.965 25.6167C16.6305 25.6167 20.0854 25.6167 23.5402 25.6167C24.425 25.6167 24.4672 26.0801 24.4672 26.7542C24.425 30.7989 24.425 34.8437 24.425 39.2254ZM23.2875 23.4679C20.0011 23.4258 16.7148 23.4258 13.4706 23.4679C12.5858 23.4679 12.2909 23.0887 12.2066 22.3725C11.8274 19.7603 11.6589 17.148 11.6168 14.5358C11.6168 13.7353 11.996 13.5247 12.6701 13.3983C16.2935 12.7241 19.7483 11.5023 23.1189 10.0277C24.1722 9.5642 24.5093 9.73273 24.4672 10.9124C24.3829 12.8084 24.4672 14.7044 24.4672 16.6003C24.4672 18.4963 24.425 20.3922 24.4672 22.2882C24.4672 23.173 24.1722 23.4679 23.2875 23.4679ZM38.3287 26.8806C36.4328 32.7792 32.2195 36.529 26.7002 39.5625C26.7002 35.0543 26.7423 30.9253 26.7002 26.8385C26.7002 25.9116 26.953 25.5745 27.922 25.6167C31.1241 25.6588 34.3262 25.6588 37.5282 25.6167C38.6237 25.5745 38.5815 25.9958 38.3287 26.8806ZM40.014 15.0414C39.9298 17.443 39.7612 19.8866 39.382 22.2882C39.2556 23.173 38.9186 23.51 38.0338 23.4679C34.6211 23.4258 31.2084 23.4258 27.8378 23.4679C27.0372 23.4679 26.6581 23.2994 26.6581 22.3725C26.7002 18.2014 26.6581 14.0302 26.6581 9.60634C30.787 11.6287 34.8739 13.1033 39.2556 13.7353C40.0983 13.8617 40.0562 14.4516 40.014 15.0414Z" fill="#ffffff" />
	<path d="M46.4603 9.47992C46.4603 8.25808 45.9547 7.79463 44.6908 7.75249C38.2866 7.45757 32.3038 5.73014 26.953 2.06462C26.0261 1.43263 25.2677 1.68543 24.4251 2.14888C18.9479 5.09815 13.1336 7.12051 6.94014 7.71036C5.54977 7.83676 5.12844 8.46874 5.12844 9.69058C5.12844 12.1764 5.00204 14.6622 5.12844 17.1902C5.42337 23.4679 6.43455 29.5771 9.93154 35.0122C13.5971 40.7 19.0743 44.1128 24.8885 47.1042C25.4784 47.3991 26.0261 47.4412 26.5738 47.1884C32.1775 44.3656 37.4861 41.1214 41.1517 35.8127C45.5334 29.535 46.4182 22.3724 46.4603 14.9993C46.4603 13.1454 46.4182 11.2916 46.4603 9.47992ZM44.3537 16.3054C44.1431 21.4034 43.5532 26.7542 41.1095 31.6837C37.9496 37.9193 32.4302 41.5427 26.4896 44.6605C25.8576 44.9975 25.3941 44.7869 24.8464 44.5341C13.892 39.3518 7.78278 30.9253 7.40359 18.6648C7.31933 16.1368 7.36146 13.651 7.31933 11.1652C7.31933 10.2383 7.52999 9.81698 8.5833 9.69058C14.1869 9.01647 19.4535 7.20477 24.4251 4.6347C25.352 4.17124 26.0261 4.08697 26.9109 4.67683C31.7983 7.75249 37.1069 9.43779 42.837 9.77485C44.1009 9.85911 44.3959 10.3226 44.3537 11.4601C44.2695 12.9348 44.3537 14.4515 44.3537 16.3054Z" fill="#ffffff" />
</svg>
	