<svg width="44" height="44" viewBox="0 0 44 44" fill="none" xmlns="http://www.w3.org/2000/svg">
	<path d="M35.75 36.6094C35.2756 36.6094 34.8906 36.9944 34.8906 37.4688C34.8906 37.9431 35.2756 38.3281 35.75 38.3281C36.2244 38.3281 36.6094 37.9431 36.6094 37.4688C36.6094 36.9944 36.2244 36.6094 35.75 36.6094Z" fill="#ffffff" />
	<path d="M38.3281 4.07619V2.57812C38.3281 1.15655 37.1716 0 35.75 0H8.25C6.82842 0 5.67188 1.15655 5.67188 2.57812V4.07619C0.0664299 14.4286 0.000257812 14.1212 0 14.6084C0 14.6088 0 14.609 0 14.6094V16.3281C0 17.8177 0.861266 19.203 2.23438 19.9908V43.1406C2.23438 43.6152 2.6192 44 3.09375 44H40.9062C41.3808 44 41.7656 43.6152 41.7656 43.1406V19.9908C43.1249 19.2037 44 17.802 44 16.3281V14.6094C44 14.609 44 14.6088 44 14.6084C43.9997 14.1159 43.8789 14.3276 38.3281 4.07619ZM41.6873 13.75H36.3694L33.5049 5.15625H36.9607L41.6873 13.75ZM29.7344 15.4688H34.8906V16.3281C34.8906 17.7497 33.7341 18.9062 32.3125 18.9062C30.8909 18.9062 29.7344 17.7497 29.7344 16.3281V15.4688ZM29.603 13.75L28.1707 5.15625H31.6931L34.5576 13.75H29.603ZM7.39062 2.57812C7.39062 2.10427 7.77614 1.71875 8.25 1.71875H35.75C36.2239 1.71875 36.6094 2.10427 36.6094 2.57812V3.4375C35.7911 3.4375 8.21528 3.4375 7.39062 3.4375V2.57812ZM28.0156 15.4688V16.3281C28.0156 17.7497 26.8591 18.9062 25.4375 18.9062C24.0159 18.9062 22.8594 17.7497 22.8594 16.3281V15.4688H28.0156ZM22.8594 13.75V5.15625H26.4283L27.8606 13.75H22.8594ZM16.1395 13.75L17.5718 5.15625H21.1406V13.75H16.1395ZM21.1406 15.4688V16.3281C21.1406 17.7497 19.9841 18.9062 18.5625 18.9062C17.1409 18.9062 15.9844 17.7497 15.9844 16.3281V15.4688H21.1406ZM9.4423 13.75L12.3069 5.15625H15.8293L14.3969 13.75H9.4423ZM14.2656 15.4688V16.3281C14.2656 17.7497 13.1091 18.9062 11.6875 18.9062C10.2659 18.9062 9.10938 17.7497 9.10938 16.3281V15.4688H14.2656ZM7.03931 5.15625H10.4951L7.63056 13.75H2.31275L7.03931 5.15625ZM1.71875 16.3281V15.4688H7.39062V16.3281C7.39062 17.6774 6.03891 18.9062 4.55469 18.9062C4.18052 18.9062 3.79277 18.825 3.43183 18.6706C2.4072 18.2348 1.71875 17.2934 1.71875 16.3281ZM17.7031 42.2812H9.10938V34.8906H17.7031V42.2812ZM17.7031 33.1719H9.10938V25.7812H17.7031V33.1719ZM40.0469 42.2812H19.4219V24.9219C19.4219 24.4473 19.037 24.0625 18.5625 24.0625H8.25C7.77545 24.0625 7.39062 24.4473 7.39062 24.9219V42.2812H3.95312V20.583C4.15233 20.61 4.35299 20.625 4.55469 20.625C5.68571 20.625 6.82902 20.1769 7.69123 19.3956C7.88193 19.2228 8.05363 19.0381 8.20772 18.8445C8.98923 19.9222 10.2575 20.625 11.6875 20.625C13.0916 20.625 14.3404 19.948 15.125 18.9032C15.9096 19.948 17.1584 20.625 18.5625 20.625C19.9666 20.625 21.2154 19.948 22 18.9032C22.7846 19.948 24.0334 20.625 25.4375 20.625C26.8416 20.625 28.0904 19.948 28.875 18.9032C29.6596 19.948 30.9084 20.625 32.3125 20.625C33.7425 20.625 35.0108 19.9222 35.7923 18.8445C35.9464 19.0381 36.1181 19.2228 36.3088 19.3956C37.171 20.1769 38.3143 20.625 39.4453 20.625C39.6466 20.625 39.8472 20.6106 40.0469 20.5833V42.2812ZM42.2812 16.3281C42.2812 17.3205 41.5672 18.2728 40.5046 18.6979C40.157 18.8362 39.8008 18.9062 39.4453 18.9062C37.9611 18.9062 36.6094 17.6774 36.6094 16.3281V15.4688H42.2812V16.3281Z" fill="#ffffff" />
	<path d="M37.4688 33.1719H36.6094V24.9219C36.6094 24.4473 36.2245 24.0625 35.75 24.0625H25.4375C24.963 24.0625 24.5781 24.4473 24.5781 24.9219V33.1719H23.7188C23.2442 33.1719 22.8594 33.5567 22.8594 34.0312C22.8594 34.5058 23.2442 34.8906 23.7188 34.8906H37.4688C37.9433 34.8906 38.3281 34.5058 38.3281 34.0312C38.3281 33.5567 37.9433 33.1719 37.4688 33.1719ZM34.8906 33.1719H26.2969V25.7812H34.8906V33.1719Z" fill="#ffffff" />
	<path d="M32.3125 36.6094H25.4375C24.963 36.6094 24.5781 36.9942 24.5781 37.4688C24.5781 37.9433 24.963 38.3281 25.4375 38.3281H32.3125C32.787 38.3281 33.1719 37.9433 33.1719 37.4688C33.1719 36.9942 32.787 36.6094 32.3125 36.6094Z" fill="#ffffff" />
</svg>
	